[img]http://img197.imageshack.us/img197/8866/ghostom.jpg[/img]
[code]
Ghost Rider Spirit of Vengeance 2012 720P TS READNFO XviD -26K
 
http://www.imdb.com/title/tt1071875/

Plot:
As Johnny Blaze hides out in Eastern Europe, he is called upon to stop the devil, who is trying to take human form.

Sources - Thanks :P

Video
ID                                       : 0
Format                                   : MPEG-4 Visual
Format profile                           : Advanced Simple@L5
Format settings, BVOP                    : 2
Format settings, QPel                    : No
Format settings, GMC                     : No warppoints
Format settings, Matrix                  : Default (H.263)
Muxing mode                              : Packed bitstream
Codec ID                                 : XVID
Codec ID/Hint                            : XviD
Duration                                 : 1h 28mn
Bit rate                                 : 3 209 Kbps
Width                                    : 1 280 pixels
Height                                   : 540 pixels
Display aspect ratio                     : 2.35:1
Frame rate                               : 29.970 fps
Color space                              : YUV
Chroma subsampling                       : 4:2:0
Bit depth                                : 8 bits
Scan type                                : Progressive
Compression mode                         : Lossy
Bits/(Pixel*Frame)                       : 0.155
Stream size                              : 1.98 GiB (96%)
Writing library                          : XviD 64

Audio
ID                                       : 1
Format                                   : MPEG Audio
Format version                           : Version 1
Format profile                           : Layer 3
Mode                                     : Joint stereo
Mode extension                           : MS Stereo
Codec ID                                 : 55
Codec ID/Hint                            : MP3
Duration                                 : 1h 28mn
Bit rate mode                            : Constant
Bit rate                                 : 128 Kbps
Channel(s)                               : 2 channels
Sampling rate                            : 44.1 KHz
Compression mode                         : Lossy
Stream size                              : 80.7 MiB (4%)
Alignment                                : Split accross interleaves
Interleave, duration                     : 16368 ms (490.54 video frames)
Writing library                          : LAME3.99r
Encoding settings                        : -m j -V 4 -q 2 -lowpass 17 -b 128

Notes -
CROPPED,ROTATED AND CROPPED AND ADDED FEW FILTERS TO THE VIDEO... CAME OUT VERY NICE...
NOTE TO THE LEAKER SUCK MY PENCIL... AND GET LED POISIONING...
[/code]
Screens:
[IMG]http://i.imgur.com/O2M6P.png[/IMG]
[IMG]http://i.imgur.com/Q1KsU.png[/IMG]
[IMG]http://img823.imageshack.us/img823/9434/vlcsnap2012022223h09m51.png[/IMG]
[IMG]http://img821.imageshack.us/img821/2258/vlcsnap2012022223h10m51.png[/IMG]
[IMG]http://img546.imageshack.us/img546/3152/vlcsnap2012022223h10m55.png[/IMG]
[IMG]http://img692.imageshack.us/img692/8436/vlcsnap2012022223h11m07.png[/IMG]